<svg 
 xmlns="http://www.w3.org/2000/svg"
 xmlns:xlink="http://www.w3.org/1999/xlink"
 width="256px" height="31px">
<path fill-rule="evenodd"  fill="rgb(160, 199, 59)"
 d="M51.486,10.419 C69.007,23.533 81.940,25.081 101.545,10.419 C120.132,-3.490 137.413,-2.864 155.174,10.419 C173.407,24.068 187.712,24.603 206.658,10.419 C225.255,-3.490 237.412,-3.490 255.998,10.419 L249.929,18.489 C234.985,7.310 227.678,7.310 212.724,18.489 C190.428,35.170 171.404,35.177 149.104,18.489 C134.563,7.612 122.149,7.612 107.612,18.489 C85.520,35.015 67.505,35.015 45.416,18.489 C30.713,7.485 20.782,7.485 6.068,18.489 L0.002,10.419 C17.879,-2.948 32.900,-3.490 51.486,10.419 Z"/>
</svg>