<svg 
 xmlns="http://www.w3.org/2000/svg"
 xmlns:xlink="http://www.w3.org/1999/xlink"
 width="19px" height="17px">
<path fill-rule="evenodd"  fill="rgb(22, 40, 81)"
 d="M18.992,2.587 C18.309,2.896 17.575,3.104 16.805,3.199 C17.591,2.719 18.195,1.957 18.479,1.051 C17.744,1.496 16.928,1.818 16.062,1.994 C15.367,1.238 14.378,0.767 13.284,0.767 C11.181,0.767 9.477,2.505 9.477,4.649 C9.477,4.951 9.511,5.249 9.576,5.533 C6.412,5.370 3.607,3.826 1.730,1.479 C1.402,2.052 1.214,2.717 1.214,3.429 C1.214,4.776 1.886,5.963 2.908,6.659 C2.284,6.639 1.697,6.464 1.184,6.173 C1.183,6.188 1.183,6.205 1.183,6.222 C1.183,8.103 2.496,9.671 4.237,10.028 C3.918,10.116 3.581,10.162 3.234,10.162 C2.989,10.162 2.750,10.140 2.518,10.093 C3.002,11.636 4.408,12.758 6.074,12.788 C4.771,13.829 3.129,14.450 1.346,14.450 C1.039,14.450 0.736,14.431 0.438,14.395 C2.123,15.496 4.124,16.139 6.273,16.139 C13.275,16.139 17.103,10.226 17.103,5.098 C17.103,4.930 17.099,4.762 17.093,4.596 C17.837,4.049 18.481,3.365 18.992,2.587 Z"/>
</svg>