<svg 
 xmlns="http://www.w3.org/2000/svg"
 xmlns:xlink="http://www.w3.org/1999/xlink"
 width="59px" height="43px">
<path fill-rule="evenodd"  opacity="0.302" fill="rgb(255, 255, 255)"
 d="M29.500,-0.000 C14.868,-0.000 6.136,5.884 4.862,16.566 C4.815,17.109 4.861,17.607 5.050,18.105 L3.540,18.105 C1.605,18.105 -0.000,19.644 -0.000,21.500 C-0.000,23.356 1.605,24.895 3.540,24.895 L4.720,24.895 L4.720,27.158 L3.540,27.158 C1.605,27.158 -0.000,28.697 -0.000,30.553 C-0.000,32.408 1.605,33.947 3.540,33.947 L4.720,33.947 L4.720,37.342 C4.720,40.465 7.363,43.000 10.620,43.000 L48.380,43.000 C51.637,43.000 54.280,40.465 54.280,37.342 L54.280,33.947 L55.460,33.947 C57.395,33.947 59.000,32.408 59.000,30.553 C59.000,28.697 57.395,27.158 55.460,27.158 L54.280,27.158 L54.280,24.895 L55.460,24.895 C57.395,24.895 59.000,23.356 59.000,21.500 C59.000,19.644 57.395,18.105 55.460,18.105 L53.950,18.105 C54.139,17.607 54.185,17.109 54.138,16.566 C52.864,5.884 44.132,-0.000 29.500,-0.000 ZM29.500,2.263 C46.539,2.263 51.023,10.184 51.778,16.837 C51.825,17.154 51.731,17.471 51.495,17.743 C51.259,17.969 50.976,18.105 50.598,18.105 L8.402,18.105 C8.072,18.105 7.741,17.969 7.505,17.743 C7.269,17.516 7.175,17.199 7.222,16.837 C7.977,10.184 12.461,2.263 29.500,2.263 ZM18.644,5.295 C17.653,5.295 16.850,6.065 16.850,7.016 C16.850,7.966 17.653,8.736 18.644,8.736 C19.635,8.736 20.438,7.966 20.438,7.016 C20.438,6.065 19.635,5.295 18.644,5.295 ZM46.492,10.727 C45.501,10.727 44.698,11.497 44.698,12.447 C44.698,13.398 45.501,14.168 46.492,14.168 C47.483,14.168 48.286,13.398 48.286,12.447 C48.286,11.497 47.483,10.727 46.492,10.727 ZM23.364,12.085 C22.373,12.085 21.570,12.855 21.570,13.805 C21.570,14.756 22.373,15.526 23.364,15.526 C24.355,15.526 25.158,14.756 25.158,13.805 C25.158,12.855 24.355,12.085 23.364,12.085 ZM13.924,12.990 C12.933,12.990 12.130,13.760 12.130,14.710 C12.130,15.661 12.933,16.431 13.924,16.431 C14.915,16.431 15.718,15.661 15.718,14.710 C15.718,13.760 14.915,12.990 13.924,12.990 ZM3.540,20.368 L55.460,20.368 C56.121,20.368 56.640,20.866 56.640,21.500 C56.640,22.134 56.121,22.631 55.460,22.631 L3.540,22.631 C2.879,22.631 2.360,22.134 2.360,21.500 C2.360,20.866 2.879,20.368 3.540,20.368 ZM7.080,24.895 L51.920,24.895 L51.920,27.158 L7.080,27.158 L7.080,24.895 ZM3.540,29.421 L55.460,29.421 C56.121,29.421 56.640,29.919 56.640,30.553 C56.640,31.186 56.121,31.684 55.460,31.684 L3.540,31.684 C2.879,31.684 2.360,31.186 2.360,30.553 C2.360,29.919 2.879,29.421 3.540,29.421 ZM7.080,33.947 L51.920,33.947 L51.920,37.342 C51.920,39.198 50.315,40.737 48.380,40.737 L10.620,40.737 C8.685,40.737 7.080,39.198 7.080,37.342 L7.080,33.947 Z"/>
</svg>