<svg 
 xmlns="http://www.w3.org/2000/svg"
 xmlns:xlink="http://www.w3.org/1999/xlink"
 width="46px" height="55px">
<path fill-rule="evenodd"  opacity="0.302" fill="rgb(255, 255, 255)"
 d="M40.222,23.330 L41.234,21.586 C41.511,21.108 41.351,20.499 40.877,20.226 C40.764,20.161 40.651,20.099 40.537,20.038 C40.513,20.026 40.489,20.013 40.466,20.000 C39.247,19.358 37.937,18.919 36.554,18.690 C36.554,18.623 36.552,18.557 36.550,18.490 C36.550,18.481 36.550,18.471 36.550,18.462 C36.547,18.371 36.542,18.281 36.536,18.191 C36.534,18.165 36.532,18.140 36.530,18.115 C36.525,18.050 36.520,17.985 36.513,17.920 C36.510,17.890 36.507,17.859 36.504,17.829 C36.497,17.766 36.489,17.703 36.480,17.640 C36.477,17.613 36.473,17.586 36.469,17.560 C36.457,17.471 36.443,17.383 36.427,17.296 C36.426,17.292 36.425,17.288 36.425,17.283 C36.409,17.200 36.393,17.117 36.375,17.034 C36.369,17.007 36.363,16.980 36.357,16.952 C36.343,16.892 36.329,16.831 36.314,16.771 C36.314,16.770 36.314,16.769 36.314,16.768 C37.364,16.339 38.713,15.886 39.411,15.903 C39.960,15.917 40.421,15.481 40.440,14.931 C40.459,14.381 40.030,13.924 39.480,13.910 C38.342,13.883 36.650,14.486 35.601,14.914 C35.594,14.900 35.586,14.887 35.579,14.874 C35.564,14.847 35.549,14.820 35.535,14.793 C35.506,14.741 35.476,14.689 35.446,14.637 C35.430,14.611 35.415,14.586 35.400,14.560 C35.363,14.499 35.326,14.439 35.288,14.379 C35.279,14.364 35.270,14.350 35.260,14.335 C35.213,14.262 35.165,14.190 35.115,14.118 C35.100,14.097 35.085,14.076 35.070,14.054 C35.033,14.004 34.997,13.953 34.959,13.902 C34.941,13.877 34.922,13.852 34.903,13.827 C34.866,13.779 34.829,13.732 34.792,13.685 C34.773,13.662 34.755,13.639 34.737,13.616 C34.685,13.553 34.633,13.491 34.579,13.429 C34.575,13.424 34.571,13.419 34.567,13.414 C34.509,13.348 34.450,13.283 34.390,13.219 C34.371,13.198 34.351,13.178 34.331,13.157 C34.289,13.113 34.246,13.069 34.203,13.026 C34.181,13.003 34.158,12.981 34.135,12.959 C34.091,12.915 34.046,12.872 34.000,12.830 C33.980,12.811 33.960,12.792 33.940,12.773 C33.875,12.714 33.809,12.655 33.742,12.598 C33.732,12.589 33.721,12.580 33.711,12.572 C33.653,12.523 33.594,12.474 33.535,12.427 C33.511,12.408 33.487,12.390 33.464,12.371 C33.437,12.350 33.410,12.329 33.383,12.308 C33.405,12.290 33.426,12.270 33.448,12.251 C33.472,12.230 33.497,12.208 33.522,12.187 C33.553,12.158 33.583,12.129 33.614,12.100 C33.638,12.078 33.662,12.055 33.686,12.031 C33.715,12.002 33.744,11.972 33.773,11.942 C33.797,11.918 33.820,11.894 33.843,11.870 C33.871,11.839 33.899,11.807 33.927,11.776 C33.949,11.751 33.971,11.726 33.993,11.701 C34.020,11.668 34.047,11.634 34.074,11.601 C34.094,11.576 34.115,11.551 34.135,11.525 C34.163,11.490 34.189,11.453 34.216,11.417 C34.234,11.392 34.252,11.368 34.270,11.343 C34.299,11.302 34.326,11.260 34.354,11.219 C34.368,11.197 34.383,11.176 34.397,11.154 C34.438,11.090 34.478,11.025 34.516,10.960 C34.566,10.874 34.612,10.787 34.656,10.700 C34.667,10.678 34.677,10.655 34.688,10.633 C34.722,10.564 34.754,10.495 34.784,10.425 C34.794,10.404 34.803,10.383 34.811,10.361 C34.844,10.283 34.875,10.204 34.903,10.125 C34.907,10.114 34.911,10.102 34.916,10.091 C35.017,9.803 35.090,9.510 35.137,9.215 C35.140,9.199 35.142,9.183 35.145,9.168 C35.157,9.086 35.167,9.003 35.175,8.921 C35.177,8.902 35.180,8.883 35.181,8.865 C35.190,8.769 35.196,8.673 35.199,8.577 C35.199,8.575 35.199,8.573 35.199,8.572 C35.835,8.546 36.464,8.699 37.027,9.022 C37.456,9.269 37.818,9.598 38.103,10.002 C38.368,10.376 38.856,10.517 39.285,10.343 C40.276,9.939 41.370,10.009 42.288,10.536 C43.924,11.476 44.477,13.583 43.521,15.231 C43.316,15.584 43.055,15.895 42.746,16.154 C42.538,16.329 42.409,16.579 42.388,16.849 C42.368,17.119 42.457,17.384 42.636,17.584 C43.624,18.689 43.782,20.303 43.031,21.599 C42.430,22.633 41.357,23.263 40.222,23.330 M15.791,49.687 L8.476,45.484 C10.280,45.433 12.143,45.045 14.007,44.320 C14.011,44.318 14.015,44.317 14.019,44.315 C14.021,44.330 14.024,44.345 14.026,44.359 C14.035,44.421 14.046,44.482 14.056,44.543 C14.070,44.626 14.084,44.709 14.099,44.791 C14.109,44.852 14.121,44.914 14.132,44.974 C14.150,45.065 14.168,45.155 14.186,45.245 C14.197,45.295 14.206,45.344 14.217,45.393 C14.245,45.525 14.275,45.655 14.306,45.785 C14.319,45.836 14.331,45.887 14.344,45.937 C14.366,46.025 14.388,46.112 14.411,46.198 C14.426,46.254 14.441,46.309 14.456,46.364 C14.480,46.450 14.505,46.536 14.530,46.622 C14.545,46.670 14.559,46.720 14.573,46.768 C14.612,46.896 14.652,47.022 14.694,47.148 C14.706,47.185 14.719,47.221 14.732,47.257 C14.763,47.352 14.796,47.446 14.830,47.540 C14.848,47.589 14.866,47.639 14.884,47.688 C14.915,47.771 14.947,47.854 14.979,47.936 C14.997,47.983 15.015,48.030 15.034,48.077 C15.076,48.182 15.120,48.286 15.164,48.390 C15.175,48.415 15.185,48.440 15.196,48.465 C15.246,48.582 15.298,48.697 15.351,48.812 C15.371,48.855 15.392,48.897 15.412,48.939 C15.450,49.021 15.489,49.102 15.529,49.182 C15.551,49.226 15.573,49.270 15.595,49.314 C15.640,49.401 15.685,49.488 15.731,49.574 C15.748,49.606 15.765,49.638 15.782,49.670 C15.785,49.675 15.788,49.681 15.791,49.687 M19.159,6.808 C19.823,5.664 21.131,5.073 22.416,5.337 C22.680,5.391 22.955,5.335 23.180,5.183 C23.404,5.030 23.557,4.793 23.606,4.527 C23.668,4.177 23.792,3.842 23.973,3.531 C24.817,2.076 26.678,1.568 28.121,2.397 C28.931,2.862 29.468,3.663 29.595,4.596 C29.658,5.052 30.024,5.402 30.483,5.443 C30.918,5.482 31.331,5.612 31.710,5.830 C32.565,6.321 33.085,7.174 33.191,8.090 C33.192,8.095 33.192,8.100 33.193,8.106 C33.197,8.146 33.201,8.187 33.204,8.227 C33.204,8.238 33.205,8.249 33.206,8.260 C33.207,8.294 33.209,8.328 33.210,8.363 C33.210,8.379 33.211,8.395 33.211,8.411 C33.211,8.439 33.211,8.467 33.210,8.495 C33.210,8.517 33.209,8.538 33.208,8.560 C33.208,8.581 33.206,8.602 33.205,8.624 C33.203,8.651 33.202,8.678 33.199,8.705 C33.198,8.718 33.197,8.730 33.195,8.742 C33.175,8.947 33.133,9.149 33.072,9.346 C33.070,9.354 33.067,9.362 33.065,9.370 C33.054,9.402 33.043,9.435 33.031,9.467 C33.027,9.480 33.022,9.493 33.017,9.506 C33.006,9.535 32.995,9.564 32.984,9.592 C32.976,9.610 32.969,9.628 32.961,9.645 C32.950,9.670 32.940,9.694 32.929,9.718 C32.918,9.742 32.906,9.766 32.894,9.790 C32.885,9.808 32.876,9.827 32.867,9.845 C32.845,9.888 32.822,9.930 32.797,9.972 C32.761,10.034 32.723,10.094 32.683,10.153 C32.676,10.163 32.669,10.174 32.662,10.184 C32.623,10.240 32.583,10.294 32.540,10.347 C32.532,10.358 32.524,10.368 32.515,10.378 C32.471,10.432 32.426,10.485 32.378,10.535 C32.375,10.538 32.373,10.541 32.370,10.544 C32.323,10.593 32.275,10.640 32.226,10.686 C32.217,10.694 32.209,10.702 32.201,10.709 C32.151,10.755 32.099,10.798 32.046,10.840 C32.035,10.849 32.025,10.857 32.014,10.865 C31.960,10.907 31.905,10.947 31.848,10.985 C31.842,10.989 31.836,10.993 31.830,10.997 C31.775,11.033 31.719,11.067 31.661,11.100 C31.653,11.105 31.644,11.110 31.635,11.116 C31.576,11.149 31.515,11.179 31.454,11.209 C31.447,11.211 31.441,11.215 31.434,11.217 C31.420,11.212 31.406,11.207 31.392,11.202 C31.359,11.189 31.325,11.176 31.291,11.164 C31.288,11.163 31.285,11.162 31.282,11.161 C30.279,10.795 29.216,10.637 28.161,10.683 C27.757,8.870 26.930,6.871 26.889,6.772 C26.678,6.266 26.096,6.031 25.588,6.248 C25.080,6.464 24.840,7.050 25.050,7.556 C25.059,7.578 25.816,9.409 26.190,11.011 C26.113,11.033 26.036,11.057 25.959,11.082 C25.953,11.084 25.947,11.086 25.941,11.088 C25.768,11.145 25.596,11.208 25.426,11.276 C25.411,11.282 25.397,11.288 25.383,11.294 C25.316,11.321 25.250,11.350 25.184,11.379 C25.162,11.388 25.141,11.398 25.119,11.408 C25.054,11.437 24.990,11.467 24.925,11.498 C24.910,11.506 24.894,11.513 24.878,11.521 C24.807,11.556 24.737,11.592 24.666,11.629 C24.103,11.009 23.484,10.448 22.812,9.949 C22.807,9.946 22.802,9.943 22.798,9.939 C22.681,9.853 22.563,9.769 22.444,9.687 C22.413,9.666 22.383,9.645 22.352,9.624 C22.254,9.557 22.154,9.492 22.053,9.428 C22.018,9.406 21.984,9.383 21.949,9.361 C21.818,9.280 21.687,9.200 21.553,9.123 C21.078,8.851 20.469,9.017 20.191,9.495 L19.624,10.474 C18.680,9.531 18.452,8.028 19.159,6.808 M3.443,42.526 C3.411,42.512 3.378,42.496 3.346,42.481 L20.791,12.411 L21.385,11.388 C21.484,11.459 21.583,11.531 21.680,11.605 C21.712,11.628 21.742,11.653 21.773,11.677 C21.839,11.727 21.904,11.779 21.969,11.831 C22.005,11.860 22.041,11.890 22.076,11.920 C22.135,11.969 22.193,12.018 22.251,12.068 C22.287,12.100 22.324,12.132 22.360,12.164 C22.416,12.215 22.472,12.266 22.527,12.317 C22.562,12.350 22.597,12.382 22.632,12.415 C22.690,12.471 22.746,12.527 22.802,12.583 C22.833,12.613 22.864,12.643 22.894,12.674 C22.974,12.756 23.052,12.838 23.129,12.922 C23.148,12.942 23.166,12.962 23.184,12.982 C23.252,13.058 23.319,13.134 23.386,13.211 C23.416,13.246 23.446,13.283 23.475,13.318 C23.525,13.377 23.574,13.436 23.622,13.497 C23.645,13.524 23.666,13.552 23.688,13.580 C23.775,13.691 23.861,13.803 23.945,13.918 C23.950,13.925 23.955,13.931 23.960,13.938 C24.051,14.064 24.140,14.191 24.226,14.321 C24.235,14.334 24.243,14.347 24.252,14.360 C24.333,14.482 24.412,14.607 24.489,14.733 C24.495,14.742 24.500,14.751 24.506,14.760 C24.589,14.896 24.669,15.035 24.748,15.176 C24.750,15.180 24.753,15.185 24.755,15.189 C24.830,15.325 24.903,15.462 24.973,15.601 C24.979,15.612 24.984,15.623 24.990,15.634 C25.135,15.922 25.270,16.218 25.395,16.521 C25.400,16.533 25.405,16.545 25.410,16.557 C25.535,16.861 25.650,17.172 25.755,17.489 C25.758,17.500 25.762,17.512 25.766,17.524 C25.871,17.844 25.965,18.170 26.049,18.503 C26.051,18.511 26.053,18.520 26.055,18.529 C26.140,18.866 26.214,19.209 26.276,19.558 C26.277,19.562 26.278,19.566 26.279,19.570 C26.342,19.923 26.394,20.281 26.435,20.645 C26.435,20.647 26.435,20.649 26.435,20.651 C26.456,20.833 26.473,21.017 26.488,21.202 C26.755,24.573 26.050,28.169 24.488,31.514 C24.484,31.522 24.481,31.529 24.477,31.536 C24.424,31.650 24.370,31.764 24.314,31.877 C24.303,31.899 24.292,31.922 24.281,31.944 C24.232,32.044 24.183,32.143 24.132,32.242 C24.112,32.282 24.091,32.321 24.071,32.360 C24.028,32.444 23.985,32.527 23.941,32.609 C23.907,32.672 23.873,32.734 23.839,32.796 C23.806,32.857 23.773,32.918 23.740,32.978 C23.671,33.102 23.600,33.227 23.529,33.350 C23.457,33.474 23.384,33.596 23.311,33.718 C23.275,33.777 23.238,33.836 23.202,33.895 C23.164,33.955 23.128,34.016 23.090,34.076 C23.040,34.155 22.989,34.234 22.938,34.312 C22.914,34.349 22.890,34.387 22.866,34.424 C22.805,34.517 22.743,34.610 22.681,34.702 C22.667,34.723 22.654,34.743 22.640,34.763 C22.569,34.868 22.497,34.972 22.424,35.075 C22.420,35.081 22.415,35.088 22.411,35.094 C20.281,38.113 17.504,40.519 14.436,41.974 L14.436,41.974 C10.630,43.780 6.691,43.966 3.449,42.529 C3.447,42.528 3.445,42.527 3.443,42.526 M20.900,52.561 C20.865,52.536 20.830,52.510 20.796,52.485 C20.737,52.442 20.679,52.398 20.621,52.354 C20.586,52.327 20.551,52.300 20.516,52.272 C20.459,52.227 20.402,52.182 20.346,52.136 C20.313,52.109 20.279,52.081 20.245,52.053 C20.187,52.004 20.129,51.954 20.072,51.903 C20.042,51.878 20.013,51.852 19.984,51.826 C19.911,51.762 19.840,51.695 19.769,51.628 C19.756,51.616 19.743,51.605 19.730,51.592 C19.647,51.513 19.565,51.432 19.484,51.349 C19.461,51.326 19.438,51.302 19.415,51.278 C19.358,51.219 19.301,51.159 19.245,51.098 C19.215,51.067 19.187,51.035 19.158,51.003 C19.109,50.948 19.060,50.894 19.012,50.838 C18.982,50.803 18.952,50.769 18.922,50.734 C18.876,50.679 18.830,50.624 18.785,50.568 C18.756,50.533 18.727,50.497 18.698,50.461 C18.652,50.403 18.606,50.345 18.561,50.285 C18.535,50.252 18.509,50.218 18.483,50.183 C18.433,50.116 18.383,50.047 18.334,49.978 C18.315,49.952 18.295,49.925 18.276,49.898 C18.208,49.802 18.141,49.704 18.076,49.605 C18.068,49.593 18.060,49.580 18.052,49.568 C17.996,49.481 17.940,49.394 17.885,49.305 C17.865,49.272 17.845,49.239 17.825,49.206 C17.783,49.136 17.741,49.067 17.700,48.996 C17.679,48.959 17.657,48.920 17.636,48.882 C17.597,48.815 17.560,48.747 17.523,48.679 C17.502,48.640 17.481,48.600 17.460,48.560 C17.423,48.491 17.387,48.421 17.351,48.350 C17.332,48.312 17.313,48.274 17.294,48.235 C17.256,48.158 17.219,48.080 17.182,48.002 C17.167,47.970 17.152,47.938 17.137,47.905 C17.088,47.799 17.040,47.691 16.994,47.583 C16.992,47.579 16.990,47.574 16.988,47.570 C16.939,47.454 16.891,47.336 16.844,47.218 C16.836,47.196 16.827,47.173 16.819,47.151 C16.782,47.057 16.747,46.963 16.712,46.867 C16.700,46.832 16.687,46.797 16.675,46.762 C16.645,46.678 16.616,46.593 16.588,46.508 C16.575,46.470 16.562,46.431 16.550,46.392 C16.523,46.308 16.496,46.224 16.471,46.139 C16.459,46.101 16.447,46.062 16.436,46.023 C16.410,45.934 16.384,45.844 16.360,45.753 C16.350,45.720 16.341,45.687 16.332,45.653 C16.303,45.544 16.275,45.434 16.249,45.324 C16.245,45.309 16.241,45.294 16.238,45.279 C16.176,45.020 16.120,44.757 16.071,44.491 C16.067,44.468 16.063,44.444 16.059,44.421 C16.039,44.313 16.021,44.205 16.003,44.096 C15.998,44.063 15.993,44.030 15.988,43.997 C15.973,43.896 15.958,43.795 15.945,43.693 C15.940,43.658 15.935,43.623 15.931,43.588 C15.925,43.544 15.921,43.501 15.915,43.457 C19.191,41.760 22.103,39.110 24.334,35.795 C24.338,35.789 24.342,35.784 24.346,35.778 C24.415,35.675 24.483,35.572 24.551,35.468 C24.575,35.432 24.598,35.395 24.621,35.359 C24.674,35.277 24.727,35.194 24.780,35.111 C24.821,35.045 24.862,34.978 24.903,34.911 C24.940,34.852 24.977,34.793 25.013,34.733 C25.092,34.602 25.170,34.470 25.247,34.337 C25.324,34.205 25.400,34.072 25.474,33.938 C25.508,33.877 25.541,33.815 25.575,33.754 C25.612,33.685 25.650,33.617 25.687,33.548 C25.733,33.461 25.778,33.374 25.823,33.287 C25.843,33.249 25.863,33.210 25.883,33.172 C25.940,33.062 25.995,32.951 26.050,32.840 C26.053,32.834 26.056,32.828 26.059,32.822 C27.829,29.241 28.678,25.406 28.517,21.735 C28.612,21.695 28.707,21.654 28.802,21.615 C28.817,21.609 28.832,21.603 28.847,21.597 C28.987,21.540 29.127,21.487 29.267,21.435 C29.308,21.420 29.350,21.405 29.391,21.390 C29.494,21.353 29.597,21.317 29.700,21.282 C29.745,21.267 29.790,21.251 29.835,21.236 C29.968,21.192 30.102,21.150 30.235,21.110 C30.282,21.096 30.330,21.083 30.377,21.069 C30.465,21.044 30.553,21.019 30.640,20.995 C30.710,20.977 30.779,20.959 30.849,20.941 C30.910,20.925 30.971,20.910 31.032,20.896 C31.333,20.823 31.634,20.760 31.933,20.707 C31.938,20.707 31.943,20.706 31.947,20.705 C34.205,20.312 36.406,20.493 38.375,21.247 C38.390,21.253 38.406,21.259 38.421,21.265 C38.505,21.297 38.589,21.331 38.672,21.366 C38.724,21.388 38.776,21.411 38.828,21.434 C38.882,21.457 38.936,21.480 38.990,21.504 L37.766,23.614 L20.951,52.596 C20.934,52.584 20.917,52.573 20.900,52.561 M31.702,13.580 C31.722,13.592 31.741,13.605 31.761,13.617 C31.801,13.643 31.841,13.668 31.880,13.695 C31.903,13.710 31.925,13.726 31.947,13.741 C31.983,13.766 32.019,13.791 32.054,13.816 C32.077,13.833 32.099,13.849 32.122,13.866 C32.156,13.892 32.190,13.917 32.223,13.943 C32.245,13.961 32.268,13.978 32.290,13.996 C32.323,14.023 32.356,14.050 32.389,14.078 C32.410,14.095 32.431,14.112 32.451,14.129 C32.487,14.160 32.522,14.192 32.557,14.224 C32.574,14.238 32.590,14.253 32.606,14.268 C32.657,14.314 32.707,14.362 32.756,14.410 C32.764,14.418 32.771,14.426 32.779,14.433 C32.820,14.474 32.860,14.516 32.900,14.558 C32.917,14.576 32.934,14.594 32.951,14.613 C32.980,14.645 33.010,14.677 33.039,14.710 C33.058,14.731 33.076,14.752 33.094,14.774 C33.121,14.805 33.147,14.836 33.173,14.868 C33.191,14.890 33.210,14.912 33.227,14.935 C33.253,14.966 33.278,14.998 33.303,15.031 C33.320,15.053 33.337,15.076 33.354,15.098 C33.379,15.132 33.404,15.166 33.428,15.200 C33.443,15.222 33.459,15.243 33.475,15.265 C33.501,15.304 33.527,15.343 33.553,15.382 C33.565,15.400 33.577,15.418 33.589,15.436 C33.626,15.493 33.661,15.550 33.696,15.608 C33.705,15.623 33.714,15.639 33.723,15.654 C33.748,15.698 33.773,15.741 33.798,15.785 C33.811,15.808 33.823,15.832 33.836,15.855 C33.855,15.892 33.875,15.929 33.894,15.966 C33.907,15.992 33.920,16.017 33.932,16.043 C33.950,16.079 33.968,16.115 33.985,16.152 C33.997,16.178 34.009,16.204 34.021,16.231 C34.038,16.267 34.054,16.304 34.069,16.340 C34.081,16.367 34.092,16.394 34.103,16.420 C34.119,16.459 34.134,16.497 34.149,16.536 C34.159,16.561 34.169,16.586 34.178,16.612 C34.195,16.657 34.211,16.703 34.227,16.748 C34.233,16.767 34.240,16.786 34.247,16.805 C34.268,16.869 34.289,16.934 34.308,16.999 C34.314,17.019 34.319,17.040 34.325,17.060 C34.338,17.105 34.351,17.151 34.363,17.197 C34.370,17.224 34.377,17.250 34.383,17.276 C34.393,17.317 34.403,17.358 34.412,17.398 C34.419,17.427 34.425,17.455 34.431,17.484 C34.439,17.523 34.447,17.562 34.455,17.602 C34.460,17.631 34.465,17.660 34.470,17.689 C34.478,17.729 34.484,17.769 34.490,17.810 C34.495,17.838 34.499,17.867 34.503,17.895 C34.509,17.938 34.515,17.981 34.520,18.024 C34.523,18.050 34.526,18.076 34.529,18.102 C34.535,18.155 34.539,18.209 34.543,18.262 C34.545,18.278 34.547,18.294 34.548,18.310 C34.552,18.376 34.556,18.442 34.558,18.508 C33.739,18.492 32.906,18.547 32.070,18.669 C32.050,18.672 32.031,18.675 32.012,18.678 C31.891,18.696 31.771,18.716 31.651,18.736 C31.618,18.742 31.584,18.748 31.551,18.754 C31.443,18.773 31.335,18.794 31.227,18.816 C31.187,18.824 31.147,18.831 31.107,18.840 C30.999,18.862 30.892,18.886 30.784,18.911 C30.746,18.919 30.709,18.927 30.671,18.936 C30.535,18.968 30.399,19.002 30.262,19.038 C30.196,19.056 30.129,19.074 30.063,19.093 C29.989,19.113 29.916,19.133 29.842,19.154 C29.769,19.175 29.696,19.198 29.623,19.220 C29.555,19.240 29.487,19.261 29.420,19.283 C29.346,19.306 29.273,19.330 29.200,19.354 C29.131,19.377 29.062,19.400 28.994,19.424 C28.922,19.448 28.851,19.473 28.779,19.499 C28.706,19.525 28.633,19.552 28.560,19.579 C28.494,19.604 28.427,19.629 28.360,19.655 C28.346,19.660 28.331,19.665 28.316,19.671 C28.315,19.661 28.313,19.650 28.311,19.640 C28.291,19.506 28.269,19.373 28.246,19.241 C28.243,19.229 28.241,19.218 28.239,19.206 C27.839,16.955 27.047,14.936 25.911,13.227 C27.387,12.555 29.087,12.481 30.604,13.042 C30.627,13.051 30.649,13.059 30.672,13.068 C30.781,13.110 30.888,13.154 30.995,13.202 C30.995,13.202 30.996,13.203 30.997,13.203 C31.086,13.243 31.173,13.285 31.259,13.329 L31.271,13.336 C31.356,13.379 31.440,13.424 31.520,13.470 C31.582,13.506 31.642,13.542 31.702,13.580 M44.749,22.586 C45.775,20.819 45.728,18.677 44.690,17.001 C44.895,16.758 45.078,16.496 45.239,16.218 C46.749,13.615 45.876,10.289 43.292,8.805 C42.060,8.096 40.625,7.909 39.262,8.262 C38.904,7.880 38.492,7.555 38.031,7.291 C37.058,6.732 35.959,6.497 34.859,6.600 C34.463,5.579 33.733,4.683 32.714,4.098 C32.303,3.862 31.868,3.688 31.414,3.578 C31.059,2.350 30.251,1.312 29.126,0.665 C26.735,-0.709 23.652,0.134 22.254,2.543 C22.116,2.781 21.998,3.028 21.901,3.282 C20.095,3.254 18.378,4.204 17.440,5.821 C16.177,7.999 16.716,10.723 18.598,12.241 L1.101,42.401 C0.823,42.879 0.983,43.488 1.458,43.760 L20.782,54.863 C21.257,55.136 21.866,54.969 22.144,54.491 L39.106,25.253 C41.311,25.624 43.590,24.584 44.749,22.586 "/>
</svg>