<svg 
 xmlns="http://www.w3.org/2000/svg"
 xmlns:xlink="http://www.w3.org/1999/xlink"
 width="56px" height="35px">
<path fill-rule="evenodd"  opacity="0.302" fill="rgb(255, 255, 255)"
 d="M54.248,23.384 C54.074,23.264 53.911,23.179 53.743,23.079 L53.743,18.949 C53.743,18.918 53.728,18.892 53.726,18.862 C53.723,18.828 53.733,18.795 53.727,18.762 C53.719,18.713 53.692,18.672 53.678,18.625 C53.658,18.555 53.636,18.488 53.603,18.424 C53.590,18.397 53.586,18.365 53.570,18.339 C53.569,18.338 53.569,18.336 53.569,18.335 L44.531,3.720 C42.945,1.155 39.357,-0.443 36.413,0.115 L4.209,6.217 C4.167,6.225 4.135,6.252 4.095,6.264 C4.027,6.285 3.963,6.306 3.901,6.339 C3.869,6.355 3.835,6.363 3.805,6.383 C3.767,6.408 3.739,6.443 3.704,6.472 C3.652,6.515 3.605,6.558 3.561,6.610 C3.537,6.638 3.509,6.659 3.488,6.688 C3.462,6.725 3.450,6.769 3.428,6.808 C3.394,6.871 3.367,6.933 3.344,7.001 C3.334,7.032 3.312,7.056 3.305,7.088 C3.304,7.092 3.305,7.095 3.304,7.098 C3.294,7.143 3.303,7.190 3.298,7.236 C3.293,7.278 3.274,7.314 3.274,7.357 L3.274,11.098 C2.979,11.272 2.642,11.504 2.287,11.845 C1.112,12.972 0.602,14.443 1.289,16.087 C1.726,17.131 2.226,17.576 3.274,17.701 L3.274,21.268 C3.274,21.301 3.290,21.329 3.292,21.362 C3.299,21.442 3.316,21.516 3.338,21.592 C3.359,21.662 3.380,21.729 3.413,21.793 C3.447,21.859 3.489,21.917 3.535,21.975 C3.581,22.034 3.626,22.088 3.681,22.136 C3.736,22.184 3.795,22.220 3.858,22.257 C3.926,22.296 3.993,22.330 4.069,22.355 C4.100,22.365 4.123,22.388 4.155,22.396 L52.330,33.988 C52.376,33.999 52.419,33.987 52.464,33.993 C52.509,33.998 52.549,34.020 52.596,34.020 C52.629,34.020 52.657,34.003 52.689,34.000 C52.769,33.994 52.841,33.977 52.916,33.954 C52.986,33.933 53.052,33.912 53.116,33.878 C53.181,33.844 53.238,33.802 53.296,33.756 C53.354,33.709 53.408,33.664 53.456,33.607 C53.502,33.552 53.538,33.493 53.574,33.429 C53.614,33.361 53.647,33.292 53.672,33.216 C53.682,33.185 53.704,33.161 53.712,33.129 C53.723,33.083 53.711,33.039 53.716,32.993 C53.722,32.948 53.743,32.908 53.743,32.860 L53.743,29.699 C54.317,29.602 54.770,29.234 55.322,28.538 C56.491,27.064 56.160,24.708 54.248,23.384 ZM5.567,8.824 L51.449,19.865 L51.449,22.119 L5.567,11.078 L5.567,8.824 ZM36.836,2.393 C38.850,2.012 41.499,3.192 42.586,4.949 L50.141,17.167 L9.933,7.492 L36.836,2.393 ZM35.211,25.059 C35.365,25.204 36.471,26.228 36.763,26.477 C37.386,27.009 37.895,27.350 38.423,27.535 C39.333,27.853 40.045,27.830 42.724,27.574 C43.631,27.488 44.174,27.444 44.750,27.419 C45.838,27.371 46.720,27.415 47.461,27.574 C48.170,27.725 48.846,27.982 49.756,28.414 C50.422,28.730 50.961,28.973 51.449,29.178 L51.449,31.393 L5.567,20.352 L5.567,17.660 C5.704,17.649 5.823,17.642 5.969,17.629 C7.755,17.471 8.879,17.469 10.242,17.715 C10.289,17.724 10.558,17.966 11.174,18.651 C12.149,19.736 12.646,20.161 13.483,20.308 C14.336,20.458 14.959,20.357 16.485,19.965 C16.736,19.900 16.840,19.874 16.977,19.841 C17.743,19.656 18.238,19.598 18.640,19.658 C19.279,19.754 19.782,20.145 20.812,21.277 C20.870,21.341 20.870,21.341 20.929,21.406 C22.386,23.008 23.221,23.660 24.647,23.875 C25.642,24.025 26.617,23.908 28.695,23.512 C30.636,23.141 31.367,23.041 31.997,23.095 C32.863,23.170 33.806,23.774 35.211,25.059 ZM53.552,27.064 C53.227,27.461 53.070,27.425 50.731,26.315 C49.675,25.814 48.850,25.501 47.936,25.306 C46.977,25.100 45.914,25.047 44.649,25.102 C44.025,25.130 43.451,25.176 42.508,25.266 C40.319,25.475 39.613,25.498 39.173,25.344 C38.783,25.208 38.857,25.271 36.778,23.364 C34.999,21.733 33.730,20.918 32.192,20.785 C31.265,20.705 30.453,20.817 28.398,21.209 C26.475,21.576 25.623,21.678 24.986,21.582 C24.259,21.472 23.727,21.057 22.618,19.837 C22.560,19.773 22.560,19.773 22.501,19.708 C21.123,18.193 20.315,17.565 18.975,17.364 C18.213,17.250 17.472,17.338 16.444,17.586 C16.294,17.622 16.177,17.652 15.920,17.717 C14.738,18.021 14.283,18.096 13.877,18.024 C13.762,18.004 13.457,17.743 12.872,17.091 C11.795,15.894 11.443,15.576 10.644,15.432 C9.038,15.143 7.740,15.145 5.770,15.319 C3.788,15.494 3.515,15.455 3.402,15.185 C3.142,14.561 3.318,14.052 3.866,13.527 C4.031,13.368 4.186,13.253 4.323,13.162 L51.565,24.530 C51.638,24.580 51.703,24.639 51.789,24.671 C52.062,24.775 52.513,24.993 52.952,25.297 C53.900,25.954 54.084,26.410 53.552,27.064 Z"/>
</svg>