<svg 
 xmlns="http://www.w3.org/2000/svg"
 xmlns:xlink="http://www.w3.org/1999/xlink"
 width="52px" height="49px">
<path fill-rule="evenodd"  opacity="0.302" fill="rgb(255, 255, 255)"
 d="M51.708,0.291 C51.305,-0.113 50.653,-0.113 50.250,0.291 L46.591,3.960 L45.496,2.862 C44.131,1.494 41.744,1.494 40.379,2.862 C39.697,3.546 39.325,4.458 39.325,5.422 C39.325,6.396 39.697,7.308 40.379,7.982 L40.689,8.292 L35.449,8.292 C34.312,8.292 33.382,9.225 33.382,10.365 L33.382,14.967 C32.699,14.718 31.986,14.583 31.242,14.583 C29.588,14.583 28.027,15.226 26.859,16.407 C25.299,17.972 24.761,20.180 25.216,22.201 C23.831,21.299 21.836,21.444 20.647,22.636 C19.965,23.320 19.593,24.232 19.593,25.196 C19.593,26.170 19.965,27.082 20.647,27.756 L20.957,28.067 L15.717,28.067 C14.580,28.067 13.650,29.000 13.650,30.139 L13.650,34.751 C12.285,33.394 9.897,33.394 8.543,34.762 C7.138,36.182 7.138,38.472 8.543,39.892 L9.639,40.991 L6.517,44.120 C6.425,44.214 6.342,44.328 6.290,44.462 C6.238,44.587 6.207,44.722 6.207,44.856 C6.207,45.996 5.277,46.929 4.140,46.929 C3.003,46.929 2.073,45.996 2.073,44.856 C2.073,43.716 3.003,42.783 4.140,42.783 C4.709,42.783 5.174,42.317 5.174,41.747 C5.174,41.177 4.709,40.711 4.140,40.711 C1.856,40.711 0.006,42.566 0.006,44.856 C0.006,47.147 1.856,49.002 4.140,49.002 C6.259,49.002 7.985,47.395 8.223,45.333 L11.086,42.462 L12.182,43.561 C12.864,44.245 13.774,44.618 14.735,44.618 C15.707,44.618 16.616,44.245 17.288,43.561 C18.694,42.151 18.694,39.850 17.298,38.441 L21.898,38.441 C23.035,38.441 23.965,37.508 23.965,36.368 L23.965,31.114 L24.275,31.425 C24.957,32.109 25.867,32.482 26.839,32.482 C27.810,32.482 28.720,32.109 29.392,31.425 C30.622,30.191 30.777,28.264 29.846,26.864 C30.291,26.968 30.746,27.020 31.211,27.020 C32.865,27.020 34.426,26.377 35.593,25.196 C36.761,24.025 37.413,22.460 37.413,20.802 C37.413,20.055 37.278,19.330 37.030,18.656 L41.620,18.656 C42.757,18.656 43.687,17.724 43.687,16.584 L43.687,11.329 L43.997,11.640 C44.679,12.324 45.589,12.697 46.560,12.697 C47.532,12.697 48.442,12.324 49.113,11.640 C50.519,10.230 50.519,7.930 49.113,6.510 L48.018,5.411 L51.677,1.742 C52.111,1.349 52.111,0.696 51.708,0.291 ZM15.851,42.110 C15.272,42.690 14.239,42.690 13.660,42.110 L10.001,38.441 C9.401,37.840 9.401,36.845 10.001,36.244 C10.290,35.954 10.683,35.788 11.096,35.788 C11.510,35.788 11.903,35.943 12.192,36.244 L15.851,39.913 C16.451,40.514 16.451,41.498 15.851,42.110 ZM21.919,36.378 L15.717,36.378 L15.717,30.160 L21.919,30.160 L21.919,36.378 ZM27.955,29.963 C27.376,30.544 26.343,30.544 25.764,29.963 L22.105,26.295 C21.815,26.004 21.650,25.611 21.650,25.196 C21.650,24.781 21.815,24.388 22.105,24.097 C22.394,23.807 22.787,23.641 23.200,23.641 C23.614,23.641 24.007,23.807 24.296,24.097 L27.955,27.766 C28.554,28.378 28.554,29.362 27.955,29.963 ZM34.167,23.735 C32.606,25.300 29.878,25.300 28.317,23.735 C26.704,22.118 26.704,19.486 28.317,17.869 C29.102,17.081 30.136,16.656 31.242,16.656 C32.069,16.656 32.865,16.894 33.537,17.350 C33.743,17.879 34.167,18.294 34.684,18.501 C35.139,19.175 35.376,19.972 35.376,20.802 C35.376,21.911 34.953,22.957 34.167,23.735 ZM41.651,16.584 L35.790,16.584 C35.738,16.521 35.687,16.459 35.625,16.407 C35.573,16.356 35.511,16.304 35.449,16.242 L35.449,10.365 L41.651,10.365 L41.651,16.584 ZM47.687,10.179 C47.108,10.759 46.074,10.759 45.496,10.179 L41.837,6.510 C41.547,6.220 41.382,5.826 41.382,5.411 C41.382,4.997 41.547,4.603 41.837,4.313 C42.126,4.022 42.519,3.857 42.932,3.857 C43.346,3.857 43.738,4.022 44.028,4.313 L47.687,7.982 C48.297,8.593 48.297,9.578 47.687,10.179 Z"/>
</svg>